/* XPM */
static char *_D[] = {
/* columns rows colors chars-per-pixel */
"60 60 119 2 ",
"   c black",
".  c #010101",
"X  c #040404",
"o  c gray2",
"O  c #060606",
"+  c gray3",
"@  c #090909",
"#  c #0E0E0E",
"$  c gray6",
"%  c #101010",
"&  c gray7",
"*  c gray8",
"=  c gray9",
"-  c #191919",
";  c #1D1D1D",
":  c #232323",
">  c gray14",
",  c #252525",
"<  c gray15",
"1  c #272727",
"2  c #2A2A2A",
"3  c gray17",
"4  c #2C2C2C",
"5  c #2D2D2D",
"6  c #2F2F2F",
"7  c gray19",
"8  c #313131",
"9  c gray21",
"0  c gray22",
"q  c #3A3A3A",
"w  c gray23",
"e  c #3C3C3C",
"r  c #434343",
"t  c #464646",
"y  c #494949",
"u  c gray29",
"i  c #4B4B4B",
"p  c #4C4C4C",
"a  c gray30",
"s  c gray32",
"d  c #555555",
"f  c gray34",
"g  c gray37",
"h  c #5F5F5F",
"j  c gray40",
"k  c #686868",
"l  c DimGray",
"z  c #6D6D6D",
"x  c #717171",
"c  c #747474",
"v  c gray46",
"b  c #777777",
"n  c gray47",
"m  c gray48",
"M  c #7C7C7C",
"N  c #7E7E7E",
"B  c gray50",
"V  c gray51",
"C  c #848484",
"Z  c gray52",
"A  c #868686",
"S  c gray53",
"D  c #898989",
"F  c gray54",
"G  c #8B8B8B",
"H  c #8D8D8D",
"J  c #909090",
"K  c #929292",
"L  c #959595",
"P  c #979797",
"I  c gray60",
"U  c #9B9B9B",
"Y  c gray62",
"T  c #A0A0A0",
"R  c gray64",
"E  c #B1B1B1",
"W  c #B2B2B2",
"Q  c #B4B4B4",
"!  c gray71",
"~  c #B6B6B6",
"^  c gray74",
"/  c gray",
"(  c #C3C3C3",
")  c #C6C6C6",
"_  c gray78",
"`  c #CACACA",
"'  c #CBCBCB",
"]  c gray80",
"[  c #CDCDCD",
"{  c gray81",
"}  c #D0D0D0",
"|  c gray82",
" . c LightGray",
".. c gray86",
"X. c gainsboro",
"o. c gray87",
"O. c #DFDFDF",
"+. c #E1E1E1",
"@. c #E4E4E4",
"#. c gray90",
"$. c #E6E6E6",
"%. c #E9E9E9",
"&. c gray93",
"*. c #EEEEEE",
"=. c #EFEFEF",
"-. c gray94",
";. c #F1F1F1",
":. c gray95",
">. c #F3F3F3",
",. c #F4F4F4",
"<. c gray96",
"1. c #F9F9F9",
"2. c gray98",
"3. c #FBFBFB",
"4. c gray99",
"5. c #FDFDFD",
"6. c #FEFEFE",
"7. c white",
"8. c None",
/* pixels */
"8.8.8.8.8.8.8.8.8.8.8.8.7.7.7.7.7.7.7.7.7.7.7.7.7.7.7.7.7.7.7.7.7.7.7.7.7.7.7.7.7.7.7.7.7.7.7.7.8.8.8.8.8.8.8.8.8.8.8.8.",
"8.8.8.8.8.8.8.8.8.7.7.7.7.7.7.7.7.7.7.7.7.7.7.7.7.7.7.7.7.7.7.7.7.7.7.7.7.7.7.7.7.7.7.7.7.7.7.7.7.7.7.8.8.8.8.8.8.8.8.8.",
"8.8.8.8.8.8.8.7.7.7.7.7.7.7.7.<.&.&.&.&.&.&.&.&.&.&.&.&.&.&.&.&.&.&.&.&.&.&.&.&.&.&.&.&.<.7.7.7.7.7.7.7.7.8.8.8.8.8.8.8.",
"8.8.8.8.8.8.7.7.7.7.7.( m 9 &                                                             & 9 m ( 7.7.7.7.7.8.8.8.8.8.8.",
"8.8.8.8.8.7.7.7.7.E 3                                                                             3 E 7.7.7.7.8.8.8.8.8.",
"8.8.8.8.7.7.7.-.u                                                                                     u -.7.7.7.8.8.8.8.",
"8.8.8.7.7.7.+.3                                                                                         3 +.7.7.7.8.8.8.",
"8.8.7.7.7.-.3                                                                                             3 -.7.7.7.8.8.",
"8.8.7.7.7.u                                                                                                 u 7.7.7.8.8.",
"8.7.7.7.E                                                                                                     E 7.7.7.8.",
"8.7.7.7.3                                                                                                     3 7.7.7.8.",
"8.7.7.(                                                                                                         ( 7.7.8.",
"7.7.7.m                                                                                                         m 7.7.7.",
"7.7.7.9                                                                                                         9 7.7.7.",
"7.7.7.&                                                                                                         & 7.7.7.",
"7.7.<.                                                                                                            <.7.7.",
"7.7.&.                                                                                                            &.7.7.",
"7.7.&.                                                                                                            &.7.7.",
"7.7.&.                                                                                                            &.7.7.",
"7.7.&.                            X 7 s 7 +                 Z D D Z D Z Z D V x d =                               &.7.7.",
"7.7.&.                        6 ) 2.7.7.7.7.} r             7.7.7.7.7.7.7.7.7.7.7.7.' u                           &.7.7.",
"7.7.&.                      m 2.7.7.7.7.7.7.7.7.U           7.7.7.7.7.7.7.7.7.7.7.7.7.7.M                         &.7.7.",
"7.7.&.                    7 2.7.7.7.7.7.7.7.7.7.7.j         7.7.7.7.7.7.7.7.7.7.7.7.7.7.7.g                       &.7.7.",
"7.7.&.                    ) 7.7.7.X.u # 9 ' 7.7.7.-.&       7.7.7.7.Z q q q u M ) 7.7.7.7.&.=                     &.7.7.",
"7.7.&.                  X 7.7.7.7.3       & &.7.7.7.t       7.7.7.7.j             U 7.7.7.7.Z                     &.7.7.",
"7.7.&.                  3 7.7.7.]           E 7.7.7.v       7.7.7.7.l               } 7.7.7.$.                    &.7.7.",
"7.7.&.                  d 7.7.7.Q           T 7.7.7.H       7.7.7.7.l               z 7.7.7.7.>                   &.7.7.",
"7.7.&.                  ; g g g e           / 7.7.7.x       7.7.7.7.l               - 7.7.7.7.l                   &.7.7.",
"7.7.&.                                    > 2.7.7.7.>       7.7.7.7.l                 2.7.7.7.V                   &.7.7.",
"7.7.&.                                  # ] 7.7.7.E         7.7.7.7.j                 $.7.7.7.P                   &.7.7.",
"7.7.&.                                - } 7.7.7.X.#         7.7.7.7.l                 X.7.7.7.U                   &.7.7.",
"7.7.&.                              u %.7.7.7.-.7           7.7.7.7.l                 <.7.7.7.D                   &.7.7.",
"7.7.&.                            D 7.7.7.7.] >             7.7.7.7.j               # 7.7.7.7.v                   &.7.7.",
"7.7.&.                        # / 7.7.7.7.K X               7.7.7.7.l               u 7.7.7.7.q                   &.7.7.",
"7.7.&.                      ; X.7.7.7.&.d                   7.7.7.7.j               Q 7.7.7.-.X                   &.7.7.",
"7.7.&.                    + } 7.7.7.-.6                     2.7.7.7.l             u 7.7.7.7.R                     &.7.7.",
"7.7.&.                    P 7.7.7.2.a                       7.7.7.7.l         > M 2.7.7.7.2.6                     &.7.7.",
"7.7.&.                  + &.7.7.7.2.$.$.$.$.$.$.$.$.m       7.7.7.7.&.$.$.$.-.7.7.7.7.7.7.K                       &.7.7.",
"7.7.&.                  a 7.7.7.7.7.7.7.7.7.7.7.7.7.Z       7.7.7.7.7.7.7.7.7.7.7.7.7.7./ X                       &.7.7.",
"7.7.&.                  v 7.7.7.7.7.7.7.7.7.7.7.7.7.D       7.7.7.7.7.7.7.7.7.7.7.7.<.D X                         &.7.7.",
"7.7.&.                  x ' ' ' ' ' ' ' ' ' ' ' ' ' l       ' ' ' ' ' ' ' ' ' Q Y g &                             &.7.7.",
"7.7.&.                                                                                                            &.7.7.",
"7.7.&.                                                                                                            &.7.7.",
"7.7.&.                                                                                                            &.7.7.",
"7.7.<.                                                                                                            <.7.7.",
"7.7.7.&                                                                                                         & 7.7.7.",
"7.7.7.9                                                                                                         9 7.7.7.",
"7.7.7.m                                                                                                         m 7.7.7.",
"8.7.7.(                                                                                                         ( 7.7.8.",
"8.7.7.7.3                                                                                                     3 7.7.7.8.",
"8.7.7.7.E                                                                                                     E 7.7.7.8.",
"8.8.7.7.7.u                                                                                                 u 7.7.7.8.8.",
"8.8.7.7.7.&.6                                                                                             3 -.7.7.7.8.8.",
"8.8.8.7.7.7.+.3                                                                                         3 +.7.7.7.8.8.8.",
"8.8.8.8.7.7.7.&.u                                                                                     u -.7.7.7.8.8.8.8.",
"8.8.8.8.8.7.7.7.7.E 3                                                                             3 E 7.7.7.7.8.8.8.8.8.",
"8.8.8.8.8.8.7.7.7.7.7.( m 9 &                                                             & 9 m ( 7.7.7.7.7.8.8.8.8.8.8.",
"8.8.8.8.8.8.8.7.7.7.7.7.7.7.7.<.&.&.&.&.&.&.&.&.&.&.&.&.&.&.&.&.&.&.&.&.&.&.&.&.&.&.&.&.<.7.7.7.7.7.7.7.7.8.8.8.8.8.8.8.",
"8.8.8.8.8.8.8.8.8.7.7.7.7.7.7.7.7.7.7.7.7.7.7.7.7.7.7.7.7.7.7.7.7.7.7.7.7.7.7.7.7.7.7.7.7.7.7.7.7.7.7.8.8.8.8.8.8.8.8.8.",
"8.8.8.8.8.8.8.8.8.8.8.8.7.7.7.7.7.7.7.7.7.7.7.7.7.7.7.7.7.7.7.7.7.7.7.7.7.7.7.7.7.7.7.7.7.7.7.7.8.8.8.8.8.8.8.8.8.8.8.8."
};
