/* XPM */
static char *_D[] = {
/* columns rows colors chars-per-pixel */
"60 60 127 2 ",
"   c black",
".  c #020202",
"X  c gray1",
"o  c #040404",
"O  c #060606",
"+  c gray3",
"@  c #090909",
"#  c gray4",
"$  c #0B0B0B",
"%  c gray5",
"&  c #0E0E0E",
"*  c gray6",
"=  c #101010",
"-  c gray8",
";  c #161616",
":  c #181818",
">  c gray11",
",  c gray12",
"<  c #202020",
"1  c gray13",
"2  c #232323",
"3  c gray15",
"4  c #2C2C2C",
"5  c #2D2D2D",
"6  c gray18",
"7  c #313131",
"8  c gray20",
"9  c #343434",
"0  c #353535",
"q  c gray22",
"w  c #3E3E3E",
"e  c #3F3F3F",
"r  c gray25",
"t  c #414141",
"y  c #434343",
"u  c #444444",
"i  c #484848",
"p  c #4C4C4C",
"a  c #505050",
"s  c gray32",
"d  c gray33",
"f  c #585858",
"g  c gray35",
"h  c #5B5B5B",
"j  c gray36",
"k  c gray37",
"l  c #5F5F5F",
"z  c #606060",
"x  c gray39",
"c  c #676767",
"v  c #686868",
"b  c DimGray",
"n  c gray42",
"m  c #6F6F6F",
"M  c #717171",
"N  c #747474",
"B  c #777777",
"V  c gray47",
"C  c #797979",
"Z  c gray48",
"A  c #7B7B7B",
"S  c #7C7C7C",
"D  c gray49",
"F  c #7E7E7E",
"G  c gray50",
"H  c #808080",
"J  c gray53",
"K  c #898989",
"L  c gray54",
"P  c #8B8B8B",
"I  c #8D8D8D",
"U  c #8E8E8E",
"Y  c #909090",
"T  c #929292",
"R  c #939393",
"E  c gray58",
"W  c #989898",
"Q  c #9F9F9F",
"!  c #A0A0A0",
"~  c #A2A2A2",
"^  c gray64",
"/  c #A7A7A7",
"(  c gray66",
")  c #AAAAAA",
"_  c gray67",
"`  c #AFAFAF",
"'  c gray70",
"]  c #B4B4B4",
"[  c #B7B7B7",
"{  c gray72",
"}  c gray75",
"|  c #C0C0C0",
" . c #CDCDCD",
".. c gray81",
"X. c #D0D0D0",
"o. c LightGray",
"O. c #D5D5D5",
"+. c #D7D7D7",
"@. c gray85",
"#. c #DADADA",
"$. c gray86",
"%. c gray87",
"&. c #DFDFDF",
"*. c gray89",
"=. c gray90",
"-. c #E7E7E7",
";. c gray91",
":. c #ECECEC",
">. c gray93",
",. c #EEEEEE",
"<. c #EFEFEF",
"1. c gray94",
"2. c #F1F1F1",
"3. c gray95",
"4. c #F3F3F3",
"5. c #F4F4F4",
"6. c gray96",
"7. c #F6F6F6",
"8. c #F8F8F8",
"9. c #F9F9F9",
"0. c gray98",
"q. c #FBFBFB",
"w. c gray99",
"e. c #FDFDFD",
"r. c #FEFEFE",
"t. c white",
"y. c None",
/* pixels */
"y.y.y.y.y.y.y.y.y.y.y.y.t.t.t.t.t.t.t.t.t.t.t.t.t.t.t.t.t.t.t.t.t.t.t.t.t.t.t.t.t.t.t.t.t.t.t.t.y.y.y.y.y.y.y.y.y.y.y.y.",
"y.y.y.y.y.y.y.y.y.t.t.t.t.t.t.t.t.t.t.t.t.t.t.t.t.t.t.t.t.t.t.t.t.t.t.t.t.t.t.t.t.t.t.t.t.t.t.t.t.t.t.y.y.y.y.y.y.y.y.y.",
"y.y.y.y.y.y.y.t.t.t.t.t.t.t.t.4.;.;.;.;.;.;.;.;.;.;.;.;.;.;.;.;.;.;.;.;.;.;.;.;.;.;.;.;.4.t.t.t.t.t.t.t.t.y.y.y.y.y.y.y.",
"y.y.y.y.y.y.t.t.t.t.q.[ n 4 &                                                             & 4 n [ q.t.t.t.t.y.y.y.y.y.y.",
"y.y.y.y.y.t.t.t.t.^ 2                                                                             2 ^ t.t.t.t.y.y.y.y.y.",
"y.y.y.y.t.t.t.:.w                                                                                     w :.t.t.t.y.y.y.y.",
"y.y.y.t.t.t.#.2                                                                                         2 #.t.t.t.y.y.y.",
"y.y.t.t.t.:.2                                                                                             2 :.t.t.t.y.y.",
"y.y.t.t.t.w                                                                                                 w q.t.t.y.y.",
"y.t.t.t.^                                                                                                     / t.t.t.y.",
"y.t.t.q.2                                                                                                     2 q.t.t.y.",
"y.t.t.[                                                                                                         [ t.t.y.",
"t.t.t.n                                                                                                         n t.t.t.",
"t.t.t.4                                                                                                         4 t.t.t.",
"t.t.t.&                                                                                                         & t.t.t.",
"t.t.4.                                                                                                            4.t.t.",
"t.t.;.                                                                                                            ;.t.t.",
"t.t.;.                                                                                                            ;.t.t.",
"t.t.;.                                                                                                            ;.t.t.",
"t.t.;.                          = f S J c u $               [ { { { { { { { ' ^ P s =                             ;.t.t.",
"t.t.;.                      $ T q.t.t.t.t.t.-.x             q.t.t.t.t.t.t.t.t.t.t.t.4.S O                         ;.t.t.",
"t.t.;.                    O ..t.t.t.t.t.t.t.t.t.P           q.t.t.t.t.t.t.t.t.t.t.t.t.t.` O                       ;.t.t.",
"t.t.;.                    V t.t.t.t.#.o.t.t.t.t.t.i         q.t.t.t.4.4.:.4.q.t.t.t.t.t.t.S                       ;.t.t.",
"t.t.;.                    :.t.t.t.s     8 #.t.t.t.^         q.t.t.t.f       O 4 V t.t.t.t.q.3                     ;.t.t.",
"t.t.;.                  : t.t.t.|         V t.t.t...        q.t.t.t.l             i q.t.t.t.E                     ;.t.t.",
"t.t.;.                  y t.t.t.I         9 t.t.t...        q.t.t.t.f               ( t.t.t.4.                    ;.t.t.",
"t.t.;.                  > x l x 4         f t.t.t.P         q.t.t.t.l               y t.t.t.t.8                   ;.t.t.",
"t.t.;.                                  = O.t.t.7.9         q.t.t.t.f               $ t.t.t.t.n                   ;.t.t.",
"t.t.;.                            & H Q :.t.t.4.y           q.t.t.t.l                 :.t.t.t.S                   ;.t.t.",
"t.t.;.                            > t.t.t.t.t.I             q.t.t.t.f                 O.t.t.t.I                   ;.t.t.",
"t.t.;.                            > t.t.t.t.t.t.{ $         q.t.t.t.l                 %.t.t.t.P                   ;.t.t.",
"t.t.;.                            O s n / t.t.t.t.`         q.t.t.t.f                 4.t.t.t.V                   ;.t.t.",
"t.t.;.                                    l t.t.t.t.9       q.t.t.t.l               & t.t.t.t.l                   ;.t.t.",
"t.t.;.                                      o.t.t.t.N       q.t.t.t.l               d t.t.t.t.3                   ;.t.t.",
"t.t.;.                  i T T I y           I t.t.t.P       q.t.t.t.f               } t.t.t.*.                    ;.t.t.",
"t.t.;.                  c t.t.t.T           ( t.t.t.c       q.t.t.t.l             N t.t.t.t.S                     ;.t.t.",
"t.t.;.                  9 t.t.t.:.;       8 q.t.t.t.9       q.t.t.t.M > 2 > 4 l ( t.t.t.t.:.;                     ;.t.t.",
"t.t.;.                  O #.t.t.t.-.V l J 4.t.t.t.%.$       q.t.t.t.t.t.t.t.t.t.t.t.t.t.t.f                       ;.t.t.",
"t.t.;.                    w t.t.t.t.t.t.t.t.t.t.t.w         q.t.t.t.t.t.t.t.t.t.t.t.t.t.N                         ;.t.t.",
"t.t.;.                      m 7.t.t.t.t.t.t.t.4.n           q.t.t.t.t.t.t.t.t.t.t.t.} y                           ;.t.t.",
"t.t.;.                        2 ( %.t.t.q.O.W :             S H H H H H H H V n p ;                               ;.t.t.",
"t.t.;.                                                                                                            ;.t.t.",
"t.t.;.                                                                                                            ;.t.t.",
"t.t.;.                                                                                                            ;.t.t.",
"t.t.4.                                                                                                            4.t.t.",
"t.t.t.&                                                                                                         & t.t.t.",
"t.t.t.4                                                                                                         4 t.t.t.",
"t.t.t.n                                                                                                         n t.t.t.",
"y.t.t.[                                                                                                         [ t.t.y.",
"y.t.t.q.2                                                                                                     2 q.t.t.y.",
"y.t.t.t./                                                                                                     ^ t.t.t.y.",
"y.y.t.t.q.w                                                                                                 w t.t.t.y.y.",
"y.y.t.t.t.;.3                                                                                             2 :.t.t.t.y.y.",
"y.y.y.t.t.t.#.2                                                                                         2 #.t.t.t.y.y.y.",
"y.y.y.y.t.t.t.:.w                                                                                     w :.t.t.t.y.y.y.y.",
"y.y.y.y.y.t.t.t.t.^ 2                                                                             2 ^ t.t.t.t.y.y.y.y.y.",
"y.y.y.y.y.y.t.t.t.t.q.[ n 4 &                                                             & 4 n [ q.t.t.t.t.y.y.y.y.y.y.",
"y.y.y.y.y.y.y.t.t.t.t.t.t.t.t.4.;.;.;.;.;.;.;.;.;.;.;.;.;.;.;.;.;.;.;.;.;.;.;.;.;.;.;.;.4.t.t.t.t.t.t.t.t.y.y.y.y.y.y.y.",
"y.y.y.y.y.y.y.y.y.t.t.t.t.t.t.t.t.t.t.t.t.t.t.t.t.t.t.t.t.t.t.t.t.t.t.t.t.t.t.t.t.t.t.t.t.t.t.t.t.t.t.y.y.y.y.y.y.y.y.y.",
"y.y.y.y.y.y.y.y.y.y.y.y.t.t.t.t.t.t.t.t.t.t.t.t.t.t.t.t.t.t.t.t.t.t.t.t.t.t.t.t.t.t.t.t.t.t.t.t.y.y.y.y.y.y.y.y.y.y.y.y."
};
