/* XPM */
static char *Calculating_route[] = {
/* columns rows colors chars-per-pixel */
"60 60 39 1 ",
"  c black",
". c #050404",
"X c #0E0E0E",
"o c #181414",
"O c #241E1D",
"+ c #003F03",
"@ c #232323",
"# c #2C2C2C",
"$ c #363333",
"% c #3F3F3F",
"& c #007F06",
"* c gray42",
"= c #6F6968",
"- c #777675",
"; c #7A7878",
": c #7D7C7C",
"> c gray50",
", c #00BF09",
"< c #00FF0D",
"1 c #858484",
"2 c #888787",
"3 c #8B8A8A",
"4 c #9C9897",
"5 c gray64",
"6 c #ABA6A5",
"7 c #B6B5B4",
"8 c #B7B7B7",
"9 c gray75",
"0 c #D8D5D4",
"q c #DADADA",
"w c #E0DDDD",
"e c gray91",
"r c #ECECEC",
"t c #F3F3F3",
"y c #F9F8F8",
"u c #FBFBFB",
"i c #FDFDFD",
"p c white",
"a c None",
/* pixels */
"aaaaaaaaaaaappppppppppppppppppppppppppppppppppppaaaaaaaaaaaa",
"aaaaaaaaappppppppppppppppppppppppppppppppppppppppppaaaaaaaaa",
"aaaaaaappppppppteeeeeeeeeeeeeeeeeeeeeeeeeeeetppppppppaaaaaaa",
"aaaaaappppu8*#X                              X#*8uppppaaaaaa",
"aaaaapppp5@                                      @5ppppaaaaa",
"aaaapppr%                                          %rpppaaaa",
"aaapppq@                 &&&&&&&&&&+                @qpppaaa",
"aapppr@                 &<<<<<<<<<<<                 @rpppaa",
"aappp%                  &<        &<                  %pppaa",
"appp5                   &<        &<                   5pppa",
"appu@                   &<<<<<<<<<<<                   @uppa",
"app8                    &< &&&& < &<                    8ppa",
"ppp*                    &< &&&& < &<                    *ppp",
"ppp#                    &<&,,,,&<&,<                    #ppp",
"pppX                    &< &&&& < &<                    Xppp",
"ppt                     &<<<<<<<<<<<                     tpp",
"ppe                     &< &&&& < &<                     epp",
"ppe                     &<&,,,,&< &<                     epp",
"ppe                     &<&,,,,&< &<                     epp",
"ppe                     &< &&&& < &<                     epp",
"ppe                     &<<<<<<<<<<<                     epp",
"ppe                      &&&&&&&&&&+                     epp",
"ppe                                                      epp",
"ppe                                                      epp",
"ppe                                                      epp",
"ppe                  ;>>2pppppppp>%                      epp",
"ppe               %>0pppppppppppppp4%                    epp",
"ppe            owpppppppppppppppppppppp8>.               epp",
"ppe            6ppppppppppppppppppppppppppp1             epp",
"ppe            pppppppppppppppppppppppppppppp            epp",
"ppe            uppppppppppppppppppppppppppppp%           epp",
"ppe            pppppppppppppppppppppppppppppp>           epp",
"ppe            9ppppppppppppppppppppppppppppp>           epp",
"ppe            %9pppppppppppppppppppppppppppp%           epp",
"ppe              3ppp9$=             %pppp-O             epp",
"ppe               >>>                 %>>%               epp",
"ppe                                                      epp",
"ppe                          +&                          epp",
"ppe                          <<,+                        epp",
"ppe                          ,<<,                        epp",
"ppe                           ,<<&                       epp",
"ppe                            ,<<,                      epp",
"ppe                     ,<<<<<<<<<<,                     epp",
"ppe                     ,<<<<<<<<<<,                     epp",
"ppt                            &<<,                      tpp",
"pppX                          &<<,                      Xppp",
"ppp#                         +<<,                       #ppp",
"ppp*                         ,<,                        *ppp",
"app8                         +&                         8ppa",
"appu@                                                  @uppa",
"appp5                                                  5pppa",
"aappp%                                                %pppaa",
"aapppe@                                              @rpppaa",
"aaapppq@                                            @qpppaaa",
"aaaapppr%                                          %rpppaaaa",
"aaaaapppp5@                                      @5ppppaaaaa",
"aaaaaappppu8*#X                              X#*8uppppaaaaaa",
"aaaaaaappppppppteeeeeeeeeeeeeeeeeeeeeeeeeeeetppppppppaaaaaaa",
"aaaaaaaaappppppppppppppppppppppppppppppppppppppppppaaaaaaaaa",
"aaaaaaaaaaaappppppppppppppppppppppppppppppppppppaaaaaaaaaaaa"
};
