/* XPM */
static char *Destination_set[] = {
/* columns rows colors chars-per-pixel */
"60 60 50 1 ",
"  c black",
". c #050404",
"X c #0E0E0E",
"o c #181414",
"O c #241E1D",
"+ c #003F03",
"@ c #232323",
"# c #2C2C2C",
"$ c #363333",
"% c #3F3F3F",
"& c #004003",
"* c #004004",
"= c #034306",
"- c #054508",
"; c #0E4E11",
": c #125215",
"> c #007F06",
", c gray42",
"< c #6F6968",
"1 c #777675",
"2 c #7A7878",
"3 c #7D7C7C",
"4 c gray50",
"5 c #00BF09",
"6 c #00BF0A",
"7 c #05C40F",
"8 c #12DE1D",
"9 c #00FF0D",
"0 c #0CF017",
"q c #04FB10",
"w c #858484",
"e c #888787",
"r c #8B8A8A",
"t c #9C9897",
"y c gray64",
"u c #ABA6A5",
"i c #B6B5B4",
"p c #B7B7B7",
"a c gray75",
"s c #D8D5D4",
"d c #DADADA",
"f c #E0DDDD",
"g c gray91",
"h c #ECECEC",
"j c #F3F3F3",
"k c #F9F8F8",
"l c #FBFBFB",
"z c #FDFDFD",
"x c white",
"c c None",
/* pixels */
"ccccccccccccxxxxxxxxxxxxxxxxxxxxxxxxxxxxxxxxxxxxcccccccccccc",
"cccccccccxxxxxxxxxxxxxxxxxxxxxxxxxxxxxxxxxxxxxxxxxxccccccccc",
"cccccccxxxxxxxxjggggggggggggggggggggggggggggjxxxxxxxxccccccc",
"ccccccxxxxlp,#X                              X#,plxxxxcccccc",
"cccccxxxxy@                                      @yxxxxccccc",
"ccccxxxh%                                          %hxxxcccc",
"cccxxxd@                                            @dxxxccc",
"ccxxxh@                             >                @hxxxcc",
"ccxxx%                            +79                 %xxxcc",
"cxxxy                            +999                  yxxxc",
"cxxl@                            q99>                  @lxxc",
"cxxp                     ++     6996                    pxxc",
"xxx,                    698    6996                     ,xxx",
"xxx#                   +999   6999+                     #xxx",
"xxxX                   >999  6999+                      Xxxx",
"xxj                    >999+6999+                        jxx",
"xxg                    ;9999999*                         gxx",
"xxg                     999999-                          gxx",
"xxg                     99999+                           gxx",
"xxg                     9999:                            gxx",
"xxg                     *09*                             gxx",
"xxg                                                      gxx",
"xxg                                                      gxx",
"xxg                                                      gxx",
"xxg                                                      gxx",
"xxg                  244exxxxxxxx4%                      gxx",
"xxg               %4sxxxxxxxxxxxxxxt%                    gxx",
"xxg            ofxxxxxxxxxxxxxxxxxxxxxxp4.               gxx",
"xxg            uxxxxxxxxxxxxxxxxxxxxxxxxxxxw             gxx",
"xxg            xxxxxxxxxxxxxxxxxxxxxxxxxxxxxx            gxx",
"xxg            lxxxxxxxxxxxxxxxxxxxxxxxxxxxxx%           gxx",
"xxg            xxxxxxxxxxxxxxxxxxxxxxxxxxxxxx4           gxx",
"xxg            axxxxxxxxxxxxxxxxxxxxxxxxxxxxx4           gxx",
"xxg            %axxxxxxxxxxxxxxxxxxxxxxxxxxxx%           gxx",
"xxg              rxxxa$<             %xxxx1O             gxx",
"xxg               444                 %44%               gxx",
"xxg                                                      gxx",
"xxg                                                      gxx",
"xxg                                                      gxx",
"xxg                                                      gxx",
"xxg                                                      gxx",
"xxg                                                      gxx",
"xxg                                                      gxx",
"xxg                                                      gxx",
"xxj                                                      jxx",
"xxxX                                                    Xxxx",
"xxx#                                                    #xxx",
"xxx,                                                    ,xxx",
"cxxp                                                    pxxc",
"cxxl@                                                  @lxxc",
"cxxxy                                                  yxxxc",
"ccxxx%                                                %xxxcc",
"ccxxxg@                                              @hxxxcc",
"cccxxxd@                                            @dxxxccc",
"ccccxxxh%                                          %hxxxcccc",
"cccccxxxxy@                                      @yxxxxccccc",
"ccccccxxxxlp,#X                              X#,plxxxxcccccc",
"cccccccxxxxxxxxjggggggggggggggggggggggggggggjxxxxxxxxccccccc",
"cccccccccxxxxxxxxxxxxxxxxxxxxxxxxxxxxxxxxxxxxxxxxxxccccccccc",
"ccccccccccccxxxxxxxxxxxxxxxxxxxxxxxxxxxxxxxxxxxxcccccccccccc"
};
