/* XPM */
static char *No_destination[] = {
/* columns rows colors chars-per-pixel */
"60 60 71 1 ",
"  c black",
". c #000100",
"X c #000300",
"o c #050404",
"O c #0E0E0E",
"+ c #001000",
"@ c #001200",
"# c #001400",
"$ c #001700",
"% c #181414",
"& c #241E1D",
"* c #002A00",
"= c #003600",
"- c #003900",
"; c #232323",
": c #2C2C2C",
"> c #363333",
", c #3F3F3F",
"< c #004C00",
"1 c #005500",
"2 c #005600",
"3 c #007000",
"4 c #007900",
"5 c #007F00",
"6 c gray42",
"7 c #6F6968",
"8 c #777675",
"9 c #7A7878",
"0 c #7D7C7C",
"q c gray50",
"w c #008900",
"e c #008A00",
"r c #009100",
"t c #009D00",
"y c #00A100",
"u c #00AD00",
"i c #00BB00",
"p c #00C200",
"a c #00D000",
"s c #00D200",
"d c #00D800",
"f c #00D900",
"g c #00DD00",
"h c #00DE00",
"j c #00EB00",
"k c #00EF00",
"l c #00F800",
"z c #00F900",
"x c #00FB00",
"c c #00FC00",
"v c green",
"b c #858484",
"n c #888787",
"m c #8B8A8A",
"M c #9C9897",
"N c gray64",
"B c #ABA6A5",
"V c #B6B5B4",
"C c #B7B7B7",
"Z c gray75",
"A c #D8D5D4",
"S c #DADADA",
"D c #E0DDDD",
"F c gray91",
"G c #ECECEC",
"H c #F3F3F3",
"J c #F9F8F8",
"K c #FBFBFB",
"L c #FDFDFD",
"P c white",
"I c None",
/* pixels */
"IIIIIIIIIIIIPPPPPPPPPPPPPPPPPPPPPPPPPPPPPPPPPPPPIIIIIIIIIIII",
"IIIIIIIIIPPPPPPPPPPPPPPPPPPPPPPPPPPPPPPPPPPPPPPPPPPIIIIIIIII",
"IIIIIIIPPPPPPPPHFFFFFFFFFFFFFFFFFFFFFFFFFFFFHPPPPPPPPIIIIIII",
"IIIIIIPPPPKC6:O                              O:6CKPPPPIIIIII",
"IIIIIPPPPN;                                      ;NPPPPIIIII",
"IIIIPPPG,                                          ,GPPPIIII",
"IIIPPPS;                                            ;SPPPIII",
"IIPPPG;                                              ;GPPPII",
"IIPPP,                       +                        ,PPPII",
"IPPPN                     1plvvs<                      NPPPI",
"IPPK;                     yvvvvvl-                     ;KPPI",
"IPPC                      r5*+tvve                      CPPI",
"PPP6                          1vvw                      6PPP",
"PPP:                         $gvv-                      :PPP",
"PPPO                        +fvv3                       OPPP",
"PPH                         uvv4                         HPP",
"PPF                         kvj                          FPP",
"PPF                                                      FPP",
"PPF                         sfi                          FPP",
"PPF                         lvg                          FPP",
"PPF                         lvg                          FPP",
"PPF                                                      FPP",
"PPF                                                      FPP",
"PPF                                                      FPP",
"PPF                                                      FPP",
"PPF                  9qqnPPPPPPPPq,                      FPP",
"PPF               ,qAPPPPPPPPPPPPPPM,                    FPP",
"PPF            %DPPPPPPPPPPPPPPPPPPPPPPCqo               FPP",
"PPF            BPPPPPPPPPPPPPPPPPPPPPPPPPPPb             FPP",
"PPF            PPPPPPPPPPPPPPPPPPPPPPPPPPPPPP            FPP",
"PPF            KPPPPPPPPPPPPPPPPPPPPPPPPPPPPP,           FPP",
"PPF            PPPPPPPPPPPPPPPPPPPPPPPPPPPPPPq           FPP",
"PPF            ZPPPPPPPPPPPPPPPPPPPPPPPPPPPPPq           FPP",
"PPF            ,ZPPPPPPPPPPPPPPPPPPPPPPPPPPPP,           FPP",
"PPF              mPPPZ>7             ,PPPP8&             FPP",
"PPF               qqq                 ,qq,               FPP",
"PPF                                                      FPP",
"PPF                                                      FPP",
"PPF                                                      FPP",
"PPF                                                      FPP",
"PPF                                                      FPP",
"PPF                                                      FPP",
"PPF                                                      FPP",
"PPF                                                      FPP",
"PPH                                                      HPP",
"PPPO                                                    OPPP",
"PPP:                                                    :PPP",
"PPP6                                                    6PPP",
"IPPC                                                    CPPI",
"IPPK;                                                  ;KPPI",
"IPPPN                                                  NPPPI",
"IIPPP,                                                ,PPPII",
"IIPPPF;                                              ;GPPPII",
"IIIPPPS;                                            ;SPPPIII",
"IIIIPPPG,                                          ,GPPPIIII",
"IIIIIPPPPN;                                      ;NPPPPIIIII",
"IIIIIIPPPPKC6:O                              O:6CKPPPPIIIIII",
"IIIIIIIPPPPPPPPHFFFFFFFFFFFFFFFFFFFFFFFFFFFFHPPPPPPPPIIIIIII",
"IIIIIIIIIPPPPPPPPPPPPPPPPPPPPPPPPPPPPPPPPPPPPPPPPPPIIIIIIIII",
"IIIIIIIIIIIIPPPPPPPPPPPPPPPPPPPPPPPPPPPPPPPPPPPPIIIIIIIIIIII"
};
