/* XPM */
static char *No_route[] = {
/* columns rows colors chars-per-pixel */
"60 60 125 2 ",
"   c black",
".  c #020000",
"X  c #060000",
"o  c #050404",
"O  c #080000",
"+  c #0B0000",
"@  c #0D0000",
"#  c #0F0000",
"$  c #0E0E0E",
"%  c #100000",
"&  c #140000",
"*  c #1B0000",
"=  c #181414",
"-  c #230000",
";  c #270000",
":  c #241E1D",
">  c #003F03",
",  c #392E02",
"<  c #232323",
"1  c #2C2C2C",
"2  c #363333",
"3  c #3F3F3F",
"4  c #4D0000",
"5  c #700000",
"6  c #790000",
"7  c #1B6F05",
"8  c #1E6D05",
"9  c #077B06",
"0  c #007F06",
"q  c #017F06",
"w  c #157305",
"e  c #1A7005",
"r  c #286705",
"t  c #296705",
"y  c #2C6505",
"u  c #246A05",
"i  c #415804",
"p  c #646505",
"a  c #6A7F06",
"s  c gray42",
"d  c #6F6968",
"f  c #777675",
"g  c #7A7878",
"h  c #7D7C7C",
"j  c gray50",
"k  c #860000",
"l  c #880000",
"z  c #8B0000",
"x  c #8D0000",
"c  c #940000",
"v  c #9E0000",
"b  c #A60000",
"n  c #A80000",
"m  c #AA0000",
"M  c #AD0000",
"N  c #BA0F01",
"B  c #BC0E01",
"V  c #BD0E01",
"C  c #A31D01",
"Z  c #A01F01",
"A  c #BB1E02",
"S  c #833102",
"D  c #933A03",
"F  c #AE2E02",
"G  c #B42702",
"H  c #B82202",
"J  c #B32802",
"K  c #A13D03",
"L  c #A03F03",
"P  c #C00000",
"I  c #CB0500",
"U  c #CD0400",
"Y  c #CC0500",
"T  c #CF0600",
"R  c #C50900",
"E  c #C90D01",
"W  c #D10000",
"Q  c #D20000",
"!  c #D30000",
"~  c #D10200",
"^  c #D20200",
"/  c #D40000",
"(  c #C51201",
")  c #C31501",
"_  c #9F4003",
"`  c #9D4203",
"'  c #9B4504",
"]  c #885B05",
"[  c #816405",
"{  c #388D07",
"}  c #00BF09",
"|  c #39BA09",
" . c #39BB0A",
".. c #589508",
"X. c #608C07",
"o. c #46AB09",
"O. c #28CF0B",
"+. c #0FED0C",
"@. c #17E30C",
"#. c #16E40C",
"$. c #07F70D",
"%. c #0BF20C",
"&. c #0AF30C",
"*. c #05F90D",
"=. c #00FF0D",
"-. c #858484",
";. c #888787",
":. c #8B8A8A",
">. c #9C9897",
",. c gray64",
"<. c #ABA6A5",
"1. c #B6B5B4",
"2. c #B7B7B7",
"3. c gray75",
"4. c #D8D5D4",
"5. c #DADADA",
"6. c #E0DDDD",
"7. c gray91",
"8. c #ECECEC",
"9. c #F3F3F3",
"0. c #F9F8F8",
"q. c #FBFBFB",
"w. c #FDFDFD",
"e. c white",
"r. c None",
/* pixels */
"r.r.r.r.r.r.r.r.r.r.r.r.e.e.e.e.e.e.e.e.e.e.e.e.e.e.e.e.e.e.e.e.e.e.e.e.e.e.e.e.e.e.e.e.e.e.e.e.r.r.r.r.r.r.r.r.r.r.r.r.",
"r.r.r.r.r.r.r.r.r.e.e.e.e.e.e.e.e.e.e.e.e.e.e.e.e.e.e.e.e.e.e.e.e.e.e.e.e.e.e.e.e.e.e.e.e.e.e.e.e.e.e.r.r.r.r.r.r.r.r.r.",
"r.r.r.r.r.r.r.e.e.e.e.e.e.e.e.9.7.7.7.7.7.7.7.7.7.7.7.7.7.7.7.7.7.7.7.7.7.7.7.7.7.7.7.7.9.e.e.e.e.e.e.e.e.r.r.r.r.r.r.r.",
"r.r.r.r.r.r.e.e.e.e.q.2.s 1 $                                                             $ 1 s 2.q.e.e.e.e.r.r.r.r.r.r.",
"r.r.r.r.r.e.e.e.e.,.<                                                                             < ,.e.e.e.e.r.r.r.r.r.",
"r.r.r.r.e.e.e.8.3                             ; 5 &                                                   3 8.e.e.e.r.r.r.r.",
"r.r.r.e.e.e.5.<                               - Q B e 0 0 0 0 0 0 0 { , c X                             < 5.e.e.e.r.r.r.",
"r.r.e.e.e.8.<                                   S / H #.=.=.=.=.*.&.p / k                                 < 8.e.e.e.r.r.",
"r.r.e.e.e.3                                     w ) / M #       + v Q ' X                                   3 e.e.e.r.r.",
"r.e.e.e.,.                                      0 | Q / b +   % m / Z &.                                      ,.e.e.e.r.",
"r.e.e.q.<                                       0 =.a / / K @.F / J +.=.                                      < q.e.e.r.",
"r.e.e.2.                                        0 =.  Z / / U / ( * 0 =.                                        2.e.e.r.",
"e.e.e.s                                         0 *.  t Q / / / o.  0 =.                                        s e.e.e.",
"e.e.e.1                                         0 *.{ } D / / B *.0 } =.                                        1 e.e.e.",
"e.e.e.$                                         0 =.  u U / / / [   0 =.                                        $ e.e.e.",
"e.e.9.                                          0 =.&.J / A G / / X.=.=.                                          9.e.e.",
"e.e.7.                                          0 =.l / R 8 7 P / Q i =.                                          7.e.e.",
"e.e.7.                                          0 ..U I { } } t E Q I O.                                          7.e.e.",
"e.e.7.                                          y U / i } } } 0  .Q Q _                                           7.e.e.",
"e.e.7.                                        # N / x { 0 0 0   =.4 ~ K                                           7.e.e.",
"e.e.7.                                        k / _ $.=.=.=.=.=.=.=.%.=.                                          7.e.e.",
"e.e.7.                                      + m 6 9 0 0 0 0 0 0 0 0 0 >                                           7.e.e.",
"e.e.7.                                                                                                            7.e.e.",
"e.e.7.                                                                                                            7.e.e.",
"e.e.7.                                                                                                            7.e.e.",
"e.e.7.                                    g j j ;.e.e.e.e.e.e.e.e.j 3                                             7.e.e.",
"e.e.7.                              3 j 4.e.e.e.e.e.e.e.e.e.e.e.e.e.e.>.3                                         7.e.e.",
"e.e.7.                        = 6.e.e.e.e.e.e.e.e.e.e.e.e.e.e.e.e.e.e.e.e.e.e.2.j o                               7.e.e.",
"e.e.7.                        <.e.e.e.e.e.e.e.e.e.e.e.e.e.e.e.e.e.e.e.e.e.e.e.e.e.e.e.-.                          7.e.e.",
"e.e.7.                        e.e.e.e.e.e.e.e.e.e.e.e.e.e.e.e.e.e.e.e.e.e.e.e.e.e.e.e.e.e.                        7.e.e.",
"e.e.7.                        q.e.e.e.e.e.e.e.e.e.e.e.e.e.e.e.e.e.e.e.e.e.e.e.e.e.e.e.e.e.3                       7.e.e.",
"e.e.7.                        e.e.e.e.e.e.e.e.e.e.e.e.e.e.e.e.e.e.e.e.e.e.e.e.e.e.e.e.e.e.j                       7.e.e.",
"e.e.7.                        3.e.e.e.e.e.e.e.e.e.e.e.e.e.e.e.e.e.e.e.e.e.e.e.e.e.e.e.e.e.j                       7.e.e.",
"e.e.7.                        3 3.e.e.e.e.e.e.e.e.e.e.e.e.e.e.e.e.e.e.e.e.e.e.e.e.e.e.e.e.3                       7.e.e.",
"e.e.7.                            :.e.e.e.3.2 d                           3 e.e.e.e.f :                           7.e.e.",
"e.e.7.                              j j j                                   3 j j 3                               7.e.e.",
"e.e.7.                                                                                                            7.e.e.",
"e.e.7.                                                                                                            7.e.e.",
"e.e.7.                                                                                                            7.e.e.",
"e.e.7.                                                                                                            7.e.e.",
"e.e.7.                                                                                                            7.e.e.",
"e.e.7.                                                                                                            7.e.e.",
"e.e.7.                                                                                                            7.e.e.",
"e.e.7.                                                                                                            7.e.e.",
"e.e.9.                                                                                                            9.e.e.",
"e.e.e.$                                                                                                         $ e.e.e.",
"e.e.e.1                                                                                                         1 e.e.e.",
"e.e.e.s                                                                                                         s e.e.e.",
"r.e.e.2.                                                                                                        2.e.e.r.",
"r.e.e.q.<                                                                                                     < q.e.e.r.",
"r.e.e.e.,.                                                                                                    ,.e.e.e.r.",
"r.r.e.e.e.3                                                                                                 3 e.e.e.r.r.",
"r.r.e.e.e.7.<                                                                                             < 8.e.e.e.r.r.",
"r.r.r.e.e.e.5.<                                                                                         < 5.e.e.e.r.r.r.",
"r.r.r.r.e.e.e.8.3                                                                                     3 8.e.e.e.r.r.r.r.",
"r.r.r.r.r.e.e.e.e.,.<                                                                             < ,.e.e.e.e.r.r.r.r.r.",
"r.r.r.r.r.r.e.e.e.e.q.2.s 1 $                                                             $ 1 s 2.q.e.e.e.e.r.r.r.r.r.r.",
"r.r.r.r.r.r.r.e.e.e.e.e.e.e.e.9.7.7.7.7.7.7.7.7.7.7.7.7.7.7.7.7.7.7.7.7.7.7.7.7.7.7.7.7.9.e.e.e.e.e.e.e.e.r.r.r.r.r.r.r.",
"r.r.r.r.r.r.r.r.r.e.e.e.e.e.e.e.e.e.e.e.e.e.e.e.e.e.e.e.e.e.e.e.e.e.e.e.e.e.e.e.e.e.e.e.e.e.e.e.e.e.e.r.r.r.r.r.r.r.r.r.",
"r.r.r.r.r.r.r.r.r.r.r.r.e.e.e.e.e.e.e.e.e.e.e.e.e.e.e.e.e.e.e.e.e.e.e.e.e.e.e.e.e.e.e.e.e.e.e.e.r.r.r.r.r.r.r.r.r.r.r.r."
};
