/* XPM */
static char *Routing[] = {
/* columns rows colors chars-per-pixel */
"60 60 158 2 ",
"   c black",
".  c #000200",
"X  c #000300",
"o  c #000400",
"O  c #000500",
"+  c #000700",
"@  c #050404",
"#  c #000900",
"$  c #000A00",
"%  c #000B00",
"&  c #000C00",
"*  c #000D00",
"=  c #000E00",
"-  c #000F00",
";  c #0E0E0E",
":  c #001000",
">  c #001200",
",  c #001300",
"<  c #001900",
"1  c #001A00",
"2  c #001B00",
"3  c #001D00",
"4  c #001E00",
"5  c #181414",
"6  c #241E1D",
"7  c #002000",
"8  c #002100",
"9  c #002200",
"0  c #002600",
"q  c #002A00",
"w  c #002D00",
"e  c #002F00",
"r  c #003400",
"t  c #003800",
"y  c #003900",
"u  c #003B00",
"i  c #003C00",
"p  c #003D00",
"a  c #003E00",
"s  c #003F03",
"d  c #232323",
"f  c #2C2C2C",
"g  c #363333",
"h  c #3F3F3F",
"j  c #004100",
"k  c #004200",
"l  c #004400",
"z  c #004600",
"x  c #004700",
"c  c #004A00",
"v  c #004B00",
"b  c #004C00",
"n  c #005100",
"m  c #005200",
"M  c #005400",
"N  c #005A00",
"B  c #005E00",
"V  c #005F00",
"C  c #006000",
"Z  c DarkGreen",
"A  c #006500",
"S  c #006700",
"D  c #006B00",
"F  c #006E00",
"G  c #006F00",
"H  c #007200",
"J  c #007300",
"K  c #007600",
"L  c #007900",
"P  c #007A00",
"I  c #007C00",
"U  c #007D00",
"Y  c #007F06",
"T  c gray42",
"R  c #6F6968",
"E  c #777675",
"W  c #7A7878",
"Q  c #7D7C7C",
"!  c gray50",
"~  c #008300",
"^  c #008500",
"/  c #008600",
"(  c #008800",
")  c #008900",
"_  c #008C00",
"`  c #008D00",
"'  c #009100",
"]  c #009600",
"[  c #009900",
"{  c #009F00",
"}  c #00A600",
"|  c #00AF00",
" . c #00B000",
".. c #00B500",
"X. c #00B600",
"o. c #00B700",
"O. c #00BC00",
"+. c #00BD00",
"@. c #00BE00",
"#. c #00BF09",
"$. c #00C200",
"%. c #00C400",
"&. c #00C500",
"*. c #00C600",
"=. c #00C700",
"-. c #00CC00",
";. c #00CF00",
":. c #00D400",
">. c #00D500",
",. c #00DA00",
"<. c #00DB00",
"1. c #00DF00",
"2. c #00E000",
"3. c #00E100",
"4. c #00E200",
"5. c #00E400",
"6. c #00E600",
"7. c #00E700",
"8. c #00E800",
"9. c #00E900",
"0. c #00EA00",
"q. c #00EB00",
"w. c #00EC00",
"e. c #00ED00",
"r. c #00EF00",
"t. c #00F100",
"y. c #00F300",
"u. c #00F500",
"i. c #00F600",
"p. c #00F700",
"a. c #00F800",
"s. c #00FA00",
"d. c #00FB00",
"f. c #00FC00",
"g. c #00FD00",
"h. c #00FE00",
"j. c green",
"k. c #00FF0D",
"l. c #858484",
"z. c #888787",
"x. c #8B8A8A",
"c. c #9C9897",
"v. c gray64",
"b. c #ABA6A5",
"n. c #B6B5B4",
"m. c #B7B7B7",
"M. c gray75",
"N. c #D8D5D4",
"B. c #DADADA",
"V. c #E0DDDD",
"C. c gray91",
"Z. c #ECECEC",
"A. c #F3F3F3",
"S. c #F9F8F8",
"D. c #FBFBFB",
"F. c #FDFDFD",
"G. c white",
"H. c None",
/* pixels */
"H.H.H.H.H.H.H.H.H.H.H.H.G.G.G.G.G.G.G.G.G.G.G.G.G.G.G.G.G.G.G.G.G.G.G.G.G.G.G.G.G.G.G.G.G.G.G.G.H.H.H.H.H.H.H.H.H.H.H.H.",
"H.H.H.H.H.H.H.H.H.G.G.G.G.G.G.G.G.G.G.G.G.G.G.G.G.G.G.G.G.G.G.G.G.G.G.G.G.G.G.G.G.G.G.G.G.G.G.G.G.G.G.H.H.H.H.H.H.H.H.H.",
"H.H.H.H.H.H.H.G.G.G.G.G.G.G.G.A.C.C.C.C.C.C.C.C.C.C.C.C.C.C.C.C.C.C.C.C.C.C.C.C.C.C.C.C.A.G.G.G.G.G.G.G.G.H.H.H.H.H.H.H.",
"H.H.H.H.H.H.G.G.G.G.D.m.T f ;                                                             ; f T m.D.G.G.G.G.H.H.H.H.H.H.",
"H.H.H.H.H.G.G.G.G.v.d                                                                             d v.G.G.G.G.H.H.H.H.H.",
"H.H.H.H.G.G.G.Z.h                                                                                     h Z.G.G.G.H.H.H.H.",
"H.H.H.G.G.G.B.d                                                                                         d B.G.G.G.H.H.H.",
"H.H.G.G.G.Z.d                                                                                             d Z.G.G.G.H.H.",
"H.H.G.G.G.h                                                                                                 h G.G.G.H.H.",
"H.G.G.G.v.                                                                                                    v.G.G.G.H.",
"H.G.G.D.d                                                                                                     d D.G.G.H.",
"H.G.G.m.                                                                                                        m.G.G.H.",
"G.G.G.T                                                                                                         T G.G.G.",
"G.G.G.f                                                                                                         f G.G.G.",
"G.G.G.;         l C B r o       e S C 4     y C o   l M 1 C C C C C y r C $ 1 C y   = C 0     7 B F b $         ; G.G.G.",
"G.G.A.          o.d.>.f.;.    U f.6.t.p.m   ] f.$   @.3.a 3.6.f.t.3.^ ` f.: v f.r.= e f.S   D d.p.%.8.U           A.G.G.",
"G.G.C.          o.6.  ^ f.7 0 f.o.o : 3.8.  ] f.$   @.3.    0 f.P     _ f., b f.d.~ q f.S 1 d.;.=     1           C.G.G.",
"G.G.C.          o.p.` 3. .  m f.S     } f.1 ] f.$   @.3.    q f.P     ` f., b f._ t.k f.S v f.J   F _ S           C.G.G.",
"G.G.C.          o.p.} d.[   l f.U     o.f.= _ f.:   =.:.    0 f.P     ` f., b f.a %.@.f.S a f.'   J 8.@.          C.G.G.",
"G.G.C.          o.6.  U f.l = 8.<.k N t.@.  a f.J a d.^     q f.P     ` f., b f.a k f.f.S $ 3.8.C 1 <.@.          C.G.G.",
"G.G.C.          o.8.  = 8.$.  y >.f.f.@.7     [ 8.p. .0     0 f.P     ` f., b f.a   o.f.S   e %.f.f.r.U           C.G.G.",
"G.G.C.                            : $             $                                             = :               C.G.G.",
"G.G.C.                                                                                                            C.G.G.",
"G.G.C.                                                                                                            C.G.G.",
"G.G.C.                                                                                                            C.G.G.",
"G.G.C.                                    W ! ! z.G.G.G.G.G.G.G.G.! h                                             C.G.G.",
"G.G.C.                              h ! N.G.G.G.G.G.G.G.G.G.G.G.G.G.G.c.h                                         C.G.G.",
"G.G.C.                        5 V.G.G.G.G.G.G.G.G.G.G.G.G.G.G.G.G.G.G.G.G.G.G.m.! @                               C.G.G.",
"G.G.C.                        b.G.G.G.G.G.G.G.G.G.G.G.G.G.G.G.G.G.G.G.G.G.G.G.G.G.G.G.l.                          C.G.G.",
"G.G.C.                        G.G.G.G.G.G.G.G.G.G.G.G.G.G.G.G.G.G.G.G.G.G.G.G.G.G.G.G.G.G.                        C.G.G.",
"G.G.C.                        D.G.G.G.G.G.G.G.G.G.G.G.G.G.G.G.G.G.G.G.G.G.G.G.G.G.G.G.G.G.h                       C.G.G.",
"G.G.C.                        G.G.G.G.G.G.G.G.G.G.G.G.G.G.G.G.G.G.G.G.G.G.G.G.G.G.G.G.G.G.!                       C.G.G.",
"G.G.C.                        M.G.G.G.G.G.G.G.G.G.G.G.G.G.G.G.G.G.G.G.G.G.G.G.G.G.G.G.G.G.!                       C.G.G.",
"G.G.C.                        h M.G.G.G.G.G.G.G.G.G.G.G.G.G.G.G.G.G.G.G.G.G.G.G.G.G.G.G.G.h                       C.G.G.",
"G.G.C.                            x.G.G.G.M.g R                           h G.G.G.G.E 6                           C.G.G.",
"G.G.C.                              ! ! !                                   h ! ! h                               C.G.G.",
"G.G.C.                                                    a Y                                                     C.G.G.",
"G.G.C.                                                    k.k.#.                                                  C.G.G.",
"G.G.C.                                                    #.k.k.#.                                                C.G.G.",
"G.G.C.                                                      #.k.k.Y                                               C.G.G.",
"G.G.C.                                                        #.k.k.Y                                             C.G.G.",
"G.G.C.                                          #.k.k.k.k.k.k.k.k.k.k.#.                                          C.G.G.",
"G.G.C.                                          #.k.k.k.k.k.k.k.k.k.k.k.                                          C.G.G.",
"G.G.C.                                            Y Y Y Y Y Y #.k.k.#.                                            C.G.G.",
"G.G.A.                                                      Y k.k.#.a                                             A.G.G.",
"G.G.G.;                                                   s k.k.#.                                              ; G.G.G.",
"G.G.G.f                                                   k.k.#.j                                               f G.G.G.",
"G.G.G.T                                                   a Y                                                   T G.G.G.",
"H.G.G.m.                                                                                                        m.G.G.H.",
"H.G.G.D.d                                                                                                     d D.G.G.H.",
"H.G.G.G.v.                                                                                                    v.G.G.G.H.",
"H.H.G.G.G.h                                                                                                 h G.G.G.H.H.",
"H.H.G.G.G.C.d                                                                                             d Z.G.G.G.H.H.",
"H.H.H.G.G.G.B.d                                                                                         d B.G.G.G.H.H.H.",
"H.H.H.H.G.G.G.Z.h                                                                                     h Z.G.G.G.H.H.H.H.",
"H.H.H.H.H.G.G.G.G.v.d                                                                             d v.G.G.G.G.H.H.H.H.H.",
"H.H.H.H.H.H.G.G.G.G.D.m.T f ;                                                             ; f T m.D.G.G.G.G.H.H.H.H.H.H.",
"H.H.H.H.H.H.H.G.G.G.G.G.G.G.G.A.C.C.C.C.C.C.C.C.C.C.C.C.C.C.C.C.C.C.C.C.C.C.C.C.C.C.C.C.A.G.G.G.G.G.G.G.G.H.H.H.H.H.H.H.",
"H.H.H.H.H.H.H.H.H.G.G.G.G.G.G.G.G.G.G.G.G.G.G.G.G.G.G.G.G.G.G.G.G.G.G.G.G.G.G.G.G.G.G.G.G.G.G.G.G.G.G.H.H.H.H.H.H.H.H.H.",
"H.H.H.H.H.H.H.H.H.H.H.H.G.G.G.G.G.G.G.G.G.G.G.G.G.G.G.G.G.G.G.G.G.G.G.G.G.G.G.G.G.G.G.G.G.G.G.G.H.H.H.H.H.H.H.H.H.H.H.H."
};
